<?xml version="1.0" encoding="utf-8"?>
<!-- Generator: Adobe Illustrator 27.5.0, SVG Export Plug-In . SVG Version: 6.00 Build 0)  -->
<svg version="1.1" id="Layer_1" xmlns="http://www.w3.org/2000/svg" xmlns:xlink="http://www.w3.org/1999/xlink" x="0px" y="0px"
	 viewBox="800 300 2400 2400" style="enable-background:new 0 0 4000 4000;" xml:space="preserve">
<g>
	<path style="fill-rule:evenodd;clip-rule:evenodd;fill:#ea580c;" d="M2268.656,986.881l0.018-0.005l4.91-3.765l1.543-1.185
		l6.512-4.998l4.898-3.767l1.668-1.28l6.608-5.078l4.885-3.76l1.782-1.367l6.718-5.168l4.862-3.742l1.898-1.46l6.808-5.233
		l4.833-3.718l2.017-1.55l6.894-5.302l4.795-3.685l2.14-1.648l6.969-5.357l4.748-3.648l2.258-1.733l7.04-5.4l4.695-3.605
		l2.382-1.823l7.102-5.443l4.633-3.552l2.5-1.913l7.156-5.48l4.57-3.492l2.617-1.998l7.205-5.508l4.502-3.427l2.731-2.088
		l7.247-5.517l4.427-3.368l2.843-2.16l7.282-5.532l4.342-3.293l2.957-2.24l7.313-5.537l4.252-3.211
		c9.501-7.177,19.027-14.344,28.565-21.487l0.58-0.44l3.283-2.452l7.352-5.5l3.96-2.957l3.382-2.518l7.351-5.462l3.86-2.863
		l3.481-2.583l7.337-5.423l3.747-2.773l3.585-2.637l7.318-5.382l3.643-2.668l3.67-2.688c8.23-6.023,16.437-11.995,24.605-17.902
		l0.648-0.467l3.84-2.768c8.008-5.77,15.968-11.471,23.882-17.108l1.947-1.375l12.912-9.137l0.507-0.358l13.033-9.133l1.782-1.237
		l11.787-8.173l2.386-1.645l12.067-8.272l1.048-0.705l12.443-8.428l1.38-0.92l10.153-6.795l2.413-1.6l0.922-0.61
		c8.32-5.513,16.522-10.867,24.605-16.058l1.894-1.218l9.677-6.167l-669.481,311.369c-14.023-0.327-28.12-0.492-42.275-0.492
		c-618.036,0-1119.051,311.74-1119.051,696.296c0,121.252,49.833,235.252,137.423,334.531l-0.037,0.008l-141.917,404.368
		c0,0-56.58,150.173,93.288,275.403c-33.798-76.898-41.812-159.863,27.783-220.592c2.59-2.263,5.277-4.545,8.047-6.85l0.505-0.42
		c2.608-2.165,5.282-4.352,8.045-6.553l0.842-0.671c2.838-2.262,5.75-4.54,8.745-6.84l0.113-0.09l0.118-0.095l0.43-0.317
		c2.962-2.277,5.995-4.563,9.103-6.868l0.837-0.623c3.07-2.278,6.222-4.565,9.425-6.875l0.752-0.548
		c3.32-2.385,6.713-4.79,10.172-7.208l0.273-0.193l0.5-0.345c3.458-2.42,6.988-4.853,10.578-7.295l0.402-0.275
		c3.538-2.413,7.143-4.837,10.8-7.275l1.045-0.69c3.693-2.457,7.44-4.927,11.243-7.407l0.473-0.308l0.585-0.382
		c3.68-2.392,7.408-4.8,11.192-7.21l1.55-0.987c3.618-2.312,7.285-4.622,11.003-6.955l1.007-0.638l1.247-0.775l11.277-7.005
		l0.685-0.422l0.435-0.263c8.382-5.165,16.962-10.357,25.715-15.592l1.233-0.742l1.157-0.69l12.057-7.152l0.015-0.005l0.907-0.538
		l1.985-1.167l9.373-5.485l3.052-1.782l1.087-0.628l12.047-6.968l1.526-0.875l1.038-0.595l12.705-7.27l1.148-0.652l0.515-0.288
		l13.865-7.843l0.728-0.407l3.098-1.743l10.81-6.047l1.385-0.775l0.883-0.492l0.86-0.482l12.343-6.85l1.385-0.76l0.104-0.057
		l15.223-8.372l0.292-0.167l3.005-1.638l6.713-3.672l6.033-3.293l0.708-0.382l6.762-3.662l6.778-3.667l1.622-0.878l5.177-2.797
		l6.813-3.657l3.974-2.135l2.848-1.531l6.847-3.662l6.34-3.382l0.505-0.27l6.865-3.652l6.873-3.652l1.838-0.979l5.032-2.665
		l0.036-0.042l0.028,0.013c197.08-104.31,400.432-202.072,447.308-241.152c60.84-50.703,107.003-151.866,126.68-200.42
		c3.057-9.008,6.52-18.057,10.393-27.132l0.038-0.103h0.005c11.56-27.053,26.668-54.242,45.093-80.897
		c38.67-55.947,91.867-109.578,157.03-154.805c108.293-75.17,195.813-149.003,284.145-157.043
		c18.298-1.663,34.856,8.843,41.135,26.12c6.293,17.287,0.355,35.977-14.748,46.46l-221.51,153.751
		c-24.287,16.872-30.358,50.523-13.497,74.817c16.862,24.278,50.513,30.363,74.807,13.502l289.975-201.278
		c17.287-12,40.828-8.567,53.966,7.885c3.524,4.407,7.067,8.972,10.639,13.662c0.723,0.96,1.318,1.805,1.957,2.827
		c3.155,4.983,6.18,9.897,9.08,14.735c10.81,18.062,5.802,41.32-11.498,53.325l-289.962,201.273
		c-24.293,16.861-30.358,50.518-13.502,74.812c16.862,24.292,50.513,30.368,74.802,13.507l221.513-153.752
		c15.098-10.483,34.687-9.52,48.685,2.423c13.983,11.92,18.037,31.11,10.082,47.68c-38.423,79.936-138.193,136.118-246.497,211.285
		c-65.158,45.23-133.998,76.322-199.937,92.985c-31.417,7.931-62.163,12.595-91.555,13.96l-0.009,0.005h-0.113
		c-9.85,0.445-19.54,0.535-29.047,0.25c-52.37,1.452-163.29,9.327-232.061,48.597c-36.44,20.802-124.712,101.187-230.467,197.518
		h0.01l-0.028,0.013l-0.01,0.005l-4.668,4.251l-4.692,4.275l-0.5,0.458l-4.21,3.832l-4.733,4.308l-3.842,3.501l-0.907,0.827
		l-4.777,4.342l-4.785,4.36l-2.457,2.23l-2.353,2.145l-4.828,4.385l-4.842,4.408l-1.025,0.93l-3.832,3.477l-4.877,4.432
		l-4.463,4.048l-0.427,0.388l-4.903,4.44l-4.918,4.457l-3.023,2.743l-1.9,1.725l-4.945,4.47l-4.957,4.478l-1.563,1.417l-3.397,3.062
		l-4.975,4.488l-4.985,4.493l-0.085,0.08l-4.908,4.417l-4.998,4.499l-3.595,3.237l-1.413,1.265l-5.017,4.498l-5.018,4.499
		l-2.112,1.898l-2.915,2.598l-5.035,4.503l-5.032,4.492l-0.615,0.548l-4.432,3.945l-5.045,4.493l-4.153,3.69l-0.888,0.788
		l-5.05,4.473l-5.045,4.475l-2.65,2.344l-2.4,2.117l-5.052,4.455l-5.05,4.45l-1.138,1.002l-3.907,3.425l-5.042,4.432l-4.682,4.097
		l-0.363,0.317l-5.037,4.398l-5.032,4.383l-3.17,2.76l-1.862,1.615l-5.027,4.36l-5.017,4.343l-1.653,1.435l-3.355,2.886
		l-5.008,4.313l-4.993,4.29l-0.16,0.137l-4.825,4.135l-4.983,4.251l-3.647,3.108l-1.313,1.12l-9.908,8.4l-2.148,1.813l-0.247,0.208
		l-7.46,6.278l-4.908,4.115l-0.67,0.567l-0.983,0.818l-8.122,6.77l-4.077,3.387l-0.785,0.648l-4.852,4.001l-4.828,3.977
		l-0.245,0.203l-4.022,3.303l-10.128,8.253c176.357-76.792,364.12-193.2,461.58-256.596v-0.015
		c58.96,5.982,119.47,9.095,181.152,9.095c618.033,0,1119.048-311.74,1119.048-696.298c0-209.022-148.05-396.52-382.432-524.14
		l0.033-0.023c106.705-105.16,229.945-242.673,229.945-242.673l-1.643,1.058l-1.29,0.827c-6.42,4.118-13.148,8.286-20.15,12.495
		l-0.973,0.582c-3.348,2.008-6.755,4.025-10.223,6.047l-1.777,1.03c-3.34,1.933-6.732,3.883-10.185,5.84l-1.2,0.68l-10.643,5.948
		l-1.092,0.61l-0.997,0.538l-11.183,6.09l-0.538,0.292l-1.262,0.676c-3.785,2.035-7.615,4.067-11.495,6.119l-0.935,0.495
		c-8.079,4.248-16.347,8.518-24.817,12.818l-1.923,0.977l-0.549,0.275c-9.118,4.61-18.44,9.25-27.958,13.914l-0.355,0.175
		l-14.593,7.087l-0.327,0.16l-14.05,6.719l-1.522,0.727l-14.428,6.813l-0.052,0.018l-12.212,5.698l-3.337,1.55l-2.848,1.318
		l-12.463,5.73l-0.448,0.208l-0.303,0.137c-10.195,4.667-20.508,9.335-30.915,14.003l-0.865,0.392l-5.547,2.48l-10.738,4.787
		l-2.145,0.953c-10.19,4.522-20.472,9.048-30.793,13.55l-1.763,0.775c-21.528,9.392-43.285,18.747-65.063,28.012l-0.942,0.402v0.032
		l-0.042-0.018c-201.095,85.512-404.382,163.507-453.345,197.843c-179.036,125.557-98.385,272.963-376.558,433.565
		c-204.463,118.038-430.961,108.482-505.923-21.35c-74.962-129.837,30.013-330.775,234.472-448.815
		c278.165-160.6,365.505-17.058,563.76-109.332c32.608-15.175,106.808-70.81,198.742-141.317H2268.656z"/>
	<path style="fill-rule:evenodd;clip-rule:evenodd;fill:#fff;" d="M1919.149,1517.093
		c-230.722,279.065-605.116,189.273-505.645-58.025c99.473-247.295,417.227-227.958,534.656-239.003
		c117.425-11.05,207.236-96.713,207.236-96.713l407.858-357.685l-47.225,32.915l-247.37,188.3
		c-91.933,70.507-166.133,126.142-198.742,141.317c-198.255,92.273-285.595-51.268-563.76,109.332
		c-204.458,118.04-309.433,318.978-234.472,448.815c74.962,129.832,301.46,139.388,505.923,21.35
		c278.173-160.601,197.522-308.008,376.558-433.565c48.963-34.337,252.25-112.332,453.386-197.856
		c30.298-12.927,64.715-27.71,100.707-43.692C1934.858,1318.974,2149.871,1238.021,1919.149,1517.093"/>
	<path style="fill-rule:evenodd;clip-rule:evenodd;fill:#fff;" d="M1956.439,1913.616
		c102.232-182.362,187.893-138.15,259.733-52.497c71.835,85.653,45.59,171.317-87.043,180.982
		c-132.628,9.672-205.852,31.782-320.517,116.051c-114.667,84.268-443.84,449.768-443.84,449.768l113.428-95.882l202.488-181.823
		c105.755-96.332,194.027-176.717,230.467-197.518c74.125-42.322,195.637-48.847,261.23-48.852
		c3.303-1.46,134.396,2.098,291.491-106.945c108.303-75.167,208.073-131.348,246.497-211.285c17.702-36.837-25.2-73.4-58.767-50.104
		l-221.513,153.752c-24.288,16.862-57.94,10.785-74.802-13.507c-16.857-24.293-10.792-57.95,13.502-74.812l289.962-201.273
		c17.3-12.005,22.308-35.263,11.498-53.325l-21.675-31.223c-13.138-16.452-36.68-19.885-53.966-7.885l-289.975,201.278
		c-24.293,16.861-57.945,10.776-74.807-13.502c-16.862-24.293-10.79-57.945,13.497-74.817l221.51-153.751
		c33.562-23.295,14.305-76.28-26.387-72.58c-88.332,8.04-175.852,81.873-284.145,157.043
		c-87.747,60.907-162.869,143.84-202.128,235.702c-21.08,59.73-73.507,174.641-137.112,227.655
		c-46.877,39.08-250.228,136.842-447.337,241.138l-5.068,2.707c-101.707,53.902-264.695,142.422-349.115,212.443
		c-75.955,63-73.625,141.49-37.493,225.198c-8.598-21.592-52.923-170.977,288.218-325.578
		C1633.143,2183.012,1854.203,2095.979,1956.439,1913.616"/>
</g>
</svg>