<?xml version="1.0" encoding="utf-8"?>
<!-- Generator: Adobe Illustrator 27.5.0, SVG Export Plug-In . SVG Version: 6.00 Build 0)  -->
<svg version="1.1" id="Layer_1" xmlns="http://www.w3.org/2000/svg" xmlns:xlink="http://www.w3.org/1999/xlink" x="0px" y="0px"
	 viewBox="0 0 4000 4000" style="enable-background:new 0 0 4000 4000;" xml:space="preserve">
<g>
	<rect style="fill-rule:evenodd;clip-rule:evenodd;fill:#FFFFFF;" width="4000" height="4000"/>
	<path style="fill-rule:evenodd;clip-rule:evenodd;fill:#009C41;" d="M2268.656,986.881l0.018-0.005l4.91-3.765l1.543-1.185
		l6.512-4.998l4.898-3.767l1.668-1.28l6.608-5.078l4.885-3.76l1.782-1.367l6.718-5.168l4.862-3.742l1.898-1.46l6.808-5.233
		l4.833-3.718l2.017-1.55l6.894-5.302l4.795-3.685l2.14-1.648l6.969-5.357l4.748-3.648l2.258-1.733l7.04-5.4l4.695-3.605
		l2.382-1.823l7.102-5.443l4.633-3.552l2.5-1.913l7.156-5.48l4.57-3.492l2.617-1.998l7.205-5.508l4.502-3.427l2.731-2.088
		l7.247-5.517l4.427-3.368l2.843-2.16l7.282-5.532l4.342-3.293l2.957-2.24l7.313-5.537l4.252-3.211
		c9.501-7.177,19.027-14.344,28.565-21.487l0.58-0.44l3.283-2.452l7.352-5.5l3.96-2.957l3.382-2.518l7.351-5.462l3.86-2.863
		l3.481-2.583l7.337-5.423l3.747-2.773l3.585-2.637l7.318-5.382l3.643-2.668l3.67-2.688c8.23-6.023,16.437-11.995,24.605-17.902
		l0.648-0.467l3.84-2.768c8.008-5.77,15.968-11.471,23.882-17.108l1.947-1.375l12.912-9.137l0.507-0.358l13.033-9.133l1.782-1.237
		l11.787-8.173l2.386-1.645l12.067-8.272l1.048-0.705l12.443-8.428l1.38-0.92l10.153-6.795l2.413-1.6l0.922-0.61
		c8.32-5.513,16.522-10.867,24.605-16.058l1.894-1.218l9.677-6.167l-669.481,311.369c-14.023-0.327-28.12-0.492-42.275-0.492
		c-618.036,0-1119.051,311.74-1119.051,696.296c0,121.252,49.833,235.252,137.423,334.531l-0.037,0.008l-141.917,404.368
		c0,0-56.58,150.173,93.288,275.403c-33.798-76.898-41.812-159.863,27.783-220.592c2.59-2.263,5.277-4.545,8.047-6.85l0.505-0.42
		c2.608-2.165,5.282-4.352,8.045-6.553l0.842-0.671c2.838-2.262,5.75-4.54,8.745-6.84l0.113-0.09l0.118-0.095l0.43-0.317
		c2.962-2.277,5.995-4.563,9.103-6.868l0.837-0.623c3.07-2.278,6.222-4.565,9.425-6.875l0.752-0.548
		c3.32-2.385,6.713-4.79,10.172-7.208l0.273-0.193l0.5-0.345c3.458-2.42,6.988-4.853,10.578-7.295l0.402-0.275
		c3.538-2.413,7.143-4.837,10.8-7.275l1.045-0.69c3.693-2.457,7.44-4.927,11.243-7.407l0.473-0.308l0.585-0.382
		c3.68-2.392,7.408-4.8,11.192-7.21l1.55-0.987c3.618-2.312,7.285-4.622,11.003-6.955l1.007-0.638l1.247-0.775l11.277-7.005
		l0.685-0.422l0.435-0.263c8.382-5.165,16.962-10.357,25.715-15.592l1.233-0.742l1.157-0.69l12.057-7.152l0.015-0.005l0.907-0.538
		l1.985-1.167l9.373-5.485l3.052-1.782l1.087-0.628l12.047-6.968l1.526-0.875l1.038-0.595l12.705-7.27l1.148-0.652l0.515-0.288
		l13.865-7.843l0.728-0.407l3.098-1.743l10.81-6.047l1.385-0.775l0.883-0.492l0.86-0.482l12.343-6.85l1.385-0.76l0.104-0.057
		l15.223-8.372l0.292-0.167l3.005-1.638l6.713-3.672l6.033-3.293l0.708-0.382l6.762-3.662l6.778-3.667l1.622-0.878l5.177-2.797
		l6.813-3.657l3.974-2.135l2.848-1.531l6.847-3.662l6.34-3.382l0.505-0.27l6.865-3.652l6.873-3.652l1.838-0.979l5.032-2.665
		l0.036-0.042l0.028,0.013c197.08-104.31,400.432-202.072,447.308-241.152c60.84-50.703,107.003-151.866,126.68-200.42
		c3.057-9.008,6.52-18.057,10.393-27.132l0.038-0.103h0.005c11.56-27.053,26.668-54.242,45.093-80.897
		c38.67-55.947,91.867-109.578,157.03-154.805c108.293-75.17,195.813-149.003,284.145-157.043
		c18.298-1.663,34.856,8.843,41.135,26.12c6.293,17.287,0.355,35.977-14.748,46.46l-221.51,153.751
		c-24.287,16.872-30.358,50.523-13.497,74.817c16.862,24.278,50.513,30.363,74.807,13.502l289.975-201.278
		c17.287-12,40.828-8.567,53.966,7.885c3.524,4.407,7.067,8.972,10.639,13.662c0.723,0.96,1.318,1.805,1.957,2.827
		c3.155,4.983,6.18,9.897,9.08,14.735c10.81,18.062,5.802,41.32-11.498,53.325l-289.962,201.273
		c-24.293,16.861-30.358,50.518-13.502,74.812c16.862,24.292,50.513,30.368,74.802,13.507l221.513-153.752
		c15.098-10.483,34.687-9.52,48.685,2.423c13.983,11.92,18.037,31.11,10.082,47.68c-38.423,79.936-138.193,136.118-246.497,211.285
		c-65.158,45.23-133.998,76.322-199.937,92.985c-31.417,7.931-62.163,12.595-91.555,13.96l-0.009,0.005h-0.113
		c-9.85,0.445-19.54,0.535-29.047,0.25c-52.37,1.452-163.29,9.327-232.061,48.597c-36.44,20.802-124.712,101.187-230.467,197.518
		h0.01l-0.028,0.013l-0.01,0.005l-4.668,4.251l-4.692,4.275l-0.5,0.458l-4.21,3.832l-4.733,4.308l-3.842,3.501l-0.907,0.827
		l-4.777,4.342l-4.785,4.36l-2.457,2.23l-2.353,2.145l-4.828,4.385l-4.842,4.408l-1.025,0.93l-3.832,3.477l-4.877,4.432
		l-4.463,4.048l-0.427,0.388l-4.903,4.44l-4.918,4.457l-3.023,2.743l-1.9,1.725l-4.945,4.47l-4.957,4.478l-1.563,1.417l-3.397,3.062
		l-4.975,4.488l-4.985,4.493l-0.085,0.08l-4.908,4.417l-4.998,4.499l-3.595,3.237l-1.413,1.265l-5.017,4.498l-5.018,4.499
		l-2.112,1.898l-2.915,2.598l-5.035,4.503l-5.032,4.492l-0.615,0.548l-4.432,3.945l-5.045,4.493l-4.153,3.69l-0.888,0.788
		l-5.05,4.473l-5.045,4.475l-2.65,2.344l-2.4,2.117l-5.052,4.455l-5.05,4.45l-1.138,1.002l-3.907,3.425l-5.042,4.432l-4.682,4.097
		l-0.363,0.317l-5.037,4.398l-5.032,4.383l-3.17,2.76l-1.862,1.615l-5.027,4.36l-5.017,4.343l-1.653,1.435l-3.355,2.886
		l-5.008,4.313l-4.993,4.29l-0.16,0.137l-4.825,4.135l-4.983,4.251l-3.647,3.108l-1.313,1.12l-9.908,8.4l-2.148,1.813l-0.247,0.208
		l-7.46,6.278l-4.908,4.115l-0.67,0.567l-0.983,0.818l-8.122,6.77l-4.077,3.387l-0.785,0.648l-4.852,4.001l-4.828,3.977
		l-0.245,0.203l-4.022,3.303l-10.128,8.253c176.357-76.792,364.12-193.2,461.58-256.596v-0.015
		c58.96,5.982,119.47,9.095,181.152,9.095c618.033,0,1119.048-311.74,1119.048-696.298c0-209.022-148.05-396.52-382.432-524.14
		l0.033-0.023c106.705-105.16,229.945-242.673,229.945-242.673l-1.643,1.058l-1.29,0.827c-6.42,4.118-13.148,8.286-20.15,12.495
		l-0.973,0.582c-3.348,2.008-6.755,4.025-10.223,6.047l-1.777,1.03c-3.34,1.933-6.732,3.883-10.185,5.84l-1.2,0.68l-10.643,5.948
		l-1.092,0.61l-0.997,0.538l-11.183,6.09l-0.538,0.292l-1.262,0.676c-3.785,2.035-7.615,4.067-11.495,6.119l-0.935,0.495
		c-8.079,4.248-16.347,8.518-24.817,12.818l-1.923,0.977l-0.549,0.275c-9.118,4.61-18.44,9.25-27.958,13.914l-0.355,0.175
		l-14.593,7.087l-0.327,0.16l-14.05,6.719l-1.522,0.727l-14.428,6.813l-0.052,0.018l-12.212,5.698l-3.337,1.55l-2.848,1.318
		l-12.463,5.73l-0.448,0.208l-0.303,0.137c-10.195,4.667-20.508,9.335-30.915,14.003l-0.865,0.392l-5.547,2.48l-10.738,4.787
		l-2.145,0.953c-10.19,4.522-20.472,9.048-30.793,13.55l-1.763,0.775c-21.528,9.392-43.285,18.747-65.063,28.012l-0.942,0.402v0.032
		l-0.042-0.018c-201.095,85.512-404.382,163.507-453.345,197.843c-179.036,125.557-98.385,272.963-376.558,433.565
		c-204.463,118.038-430.961,108.482-505.923-21.35c-74.962-129.837,30.013-330.775,234.472-448.815
		c278.165-160.6,365.505-17.058,563.76-109.332c32.608-15.175,106.808-70.81,198.742-141.317H2268.656z"/>
	<path style="fill-rule:evenodd;clip-rule:evenodd;fill:#E6E6E6;" d="M1919.149,1517.093
		c-230.722,279.065-605.116,189.273-505.645-58.025c99.473-247.295,417.227-227.958,534.656-239.003
		c117.425-11.05,207.236-96.713,207.236-96.713l407.858-357.685l-47.225,32.915l-247.37,188.3
		c-91.933,70.507-166.133,126.142-198.742,141.317c-198.255,92.273-285.595-51.268-563.76,109.332
		c-204.458,118.04-309.433,318.978-234.472,448.815c74.962,129.832,301.46,139.388,505.923,21.35
		c278.173-160.601,197.522-308.008,376.558-433.565c48.963-34.337,252.25-112.332,453.386-197.856
		c30.298-12.927,64.715-27.71,100.707-43.692C1934.858,1318.974,2149.871,1238.021,1919.149,1517.093"/>
	<path style="fill-rule:evenodd;clip-rule:evenodd;fill:#E6E6E6;" d="M1956.439,1913.616
		c102.232-182.362,187.893-138.15,259.733-52.497c71.835,85.653,45.59,171.317-87.043,180.982
		c-132.628,9.672-205.852,31.782-320.517,116.051c-114.667,84.268-443.84,449.768-443.84,449.768l113.428-95.882l202.488-181.823
		c105.755-96.332,194.027-176.717,230.467-197.518c74.125-42.322,195.637-48.847,261.23-48.852
		c3.303-1.46,134.396,2.098,291.491-106.945c108.303-75.167,208.073-131.348,246.497-211.285c17.702-36.837-25.2-73.4-58.767-50.104
		l-221.513,153.752c-24.288,16.862-57.94,10.785-74.802-13.507c-16.857-24.293-10.792-57.95,13.502-74.812l289.962-201.273
		c17.3-12.005,22.308-35.263,11.498-53.325l-21.675-31.223c-13.138-16.452-36.68-19.885-53.966-7.885l-289.975,201.278
		c-24.293,16.861-57.945,10.776-74.807-13.502c-16.862-24.293-10.79-57.945,13.497-74.817l221.51-153.751
		c33.562-23.295,14.305-76.28-26.387-72.58c-88.332,8.04-175.852,81.873-284.145,157.043
		c-87.747,60.907-162.869,143.84-202.128,235.702c-21.08,59.73-73.507,174.641-137.112,227.655
		c-46.877,39.08-250.228,136.842-447.337,241.138l-5.068,2.707c-101.707,53.902-264.695,142.422-349.115,212.443
		c-75.955,63-73.625,141.49-37.493,225.198c-8.598-21.592-52.923-170.977,288.218-325.578
		C1633.143,2183.012,1854.203,2095.979,1956.439,1913.616"/>
	<path style="fill-rule:evenodd;clip-rule:evenodd;" d="M3149.767,2941.7v251.915h-61.365v-151.078l-56.338,151.078h-49.522
		l-56.701-151.437v151.437h-61.367V2941.7h72.492l70.692,174.4l69.983-174.4H3149.767z M2671.771,2941.7v150.717
		c0,15.072,3.708,26.675,11.127,34.81c7.417,8.135,18.302,12.198,32.655,12.198c14.352,0,25.36-4.063,33.013-12.198
		s11.485-19.738,11.485-34.81V2941.7h61.365v150.358c0,22.489-4.785,41.503-14.352,57.057c-9.572,15.548-22.432,27.273-38.58,35.168
		c-16.148,7.895-34.148,11.845-54.005,11.845c-19.862,0-37.62-3.893-53.292-11.665c-15.67-7.771-28.048-19.498-37.143-35.168
		c-9.088-15.672-13.638-34.748-13.638-57.237V2941.7H2671.771z M2481.939,3196.129c-18.42,0-34.927-2.997-49.521-8.972
		c-14.593-5.982-26.258-14.835-34.989-26.557c-8.735-11.722-13.336-25.838-13.815-42.345h65.312
		c0.953,9.327,4.185,16.45,9.685,21.355c5.508,4.903,12.685,7.35,21.533,7.35c9.09,0,16.27-2.092,21.529-6.279
		c5.268-4.185,7.9-9.987,7.9-17.405c0-6.217-2.098-11.362-6.283-15.43c-4.181-4.066-9.326-7.417-15.425-10.048
		c-6.105-2.632-14.778-5.622-26.021-8.971c-16.267-5.022-29.543-10.043-39.832-15.07c-10.29-5.023-19.14-12.44-26.557-22.248
		c-7.417-9.808-11.127-22.61-11.127-38.4c0-23.442,8.495-41.807,25.485-55.082c16.983-13.28,39.113-19.918,66.386-19.918
		c27.752,0,50.116,6.638,67.105,19.918c16.985,13.275,26.075,31.758,27.275,55.442h-66.393c-0.477-8.137-3.467-14.533-8.971-19.2
		c-5.499-4.663-12.557-6.997-21.17-6.997c-7.417,0-13.398,1.973-17.943,5.918c-4.545,3.95-6.817,9.628-6.817,17.047
		c0,8.135,3.827,14.475,11.48,19.025c7.658,4.54,19.62,9.443,35.887,14.712c16.267,5.498,29.49,10.761,39.656,15.788
		c10.167,5.027,18.96,12.316,26.376,21.888c7.417,9.572,11.127,21.893,11.127,36.965c0,14.352-3.653,27.392-10.951,39.113
		c-7.295,11.72-17.882,21.052-31.758,27.992C2517.226,3192.656,2500.842,3196.129,2481.939,3196.129z M2261.602,3054.377
		c11.722,0,20.452-2.75,26.197-8.253c5.745-5.5,8.613-13.277,8.613-23.32c0-10.053-2.868-17.83-8.613-23.33
		c-5.745-5.503-14.475-8.253-26.197-8.253h-33.373v63.157H2261.602z M2358.854,3022.804c0,14.588-3.35,27.925-10.048,40.007
		c-6.7,12.08-16.985,21.832-30.865,29.248c-13.875,7.417-31.1,11.127-51.67,11.127h-38.042v90.43h-61.365V2941.7h99.407
		c20.092,0,37.082,3.467,50.957,10.402c13.875,6.942,24.283,16.513,31.218,28.712
		C2355.385,2993.012,2358.854,3007.01,2358.854,3022.804z M2122.364,2941.7v251.915h-61.365V2941.7H2122.364z M2016.869,2941.7
		v251.915h-61.367v-151.078l-56.343,151.078h-49.52l-56.703-151.437v151.437h-61.36V2941.7h72.487l70.695,174.4l69.978-174.4
		H2016.869z M1598.796,2990.862v50.957h82.182v47.366h-82.182v55.267h92.943v49.164h-154.303V2941.7h154.303v49.162H1598.796z
		 M1364.824,3055.1h38.042c11.243,0,19.677-2.755,25.298-8.258c5.622-5.5,8.433-13.277,8.433-23.325
		c0-9.572-2.812-17.107-8.433-22.607c-5.622-5.503-14.055-8.258-25.298-8.258h-38.042V3055.1z M1431.929,3193.615l-52.388-95.098
		h-14.717v95.098h-61.365V2941.7h102.992c19.857,0,36.785,3.467,50.778,10.402c13.993,6.942,24.464,16.452,31.403,28.532
		c6.935,12.085,10.403,25.54,10.403,40.37c0,16.748-4.725,31.7-14.173,44.858c-9.448,13.157-23.387,22.488-41.807,27.992
		l58.133,99.762H1431.929z M1140.543,3140.149c20.093,0,36.185-6.705,48.27-20.103c12.075-13.398,18.117-31.1,18.117-53.107
		c0-22.252-6.042-40.015-18.117-53.292c-12.085-13.275-28.177-19.918-48.27-19.918c-20.333,0-36.543,6.582-48.628,19.74
		c-12.08,13.162-18.118,30.982-18.118,53.47c0,22.247,6.038,40.012,18.118,53.292
		C1104,3133.505,1120.209,3140.149,1140.543,3140.149z M1140.543,3196.129c-23.683,0-45.397-5.51-65.13-16.508
		c-19.74-11.003-35.41-26.377-47.013-46.115c-11.603-19.733-17.405-41.928-17.405-66.567c0-24.642,5.802-46.772,17.405-66.387
		c11.603-19.617,27.273-34.933,47.013-45.937c19.733-11.007,41.447-16.507,65.13-16.507c23.683,0,45.392,5.5,65.13,16.507
		c19.74,11.003,35.287,26.32,46.655,45.937c11.362,19.615,17.04,41.745,17.04,66.387c0,24.638-5.735,46.833-17.22,66.567
		c-11.485,19.738-27.033,35.112-46.648,46.115C1185.878,3190.619,1164.226,3196.129,1140.543,3196.129z M2712.419,3248.234h-11.39
		v92.697h14.962v-65.418l52.578,65.418h11.253v-92.697h-14.83v65.952L2712.419,3248.234z M2589.532,3307.959h-39.198l19.602-44.102
		L2589.532,3307.959z M2603.839,3340.93h15.755l-41.58-92.697h-16.156l-41.585,92.697h15.757l8.745-19.464h50.187L2603.839,3340.93z
		 M2442.949,3260.015c-9.45-9.358-20.886-14.035-34.305-14.035c-15.184,0-27.104,4.749-35.753,14.235
		c-8.65,9.49-12.978,21.258-12.978,35.295c0,6.36,0.968,12.293,2.91,17.812c1.947,5.518,4.815,10.507,8.608,14.962
		c3.798,4.46,8.897,7.988,15.297,10.597c6.402,2.603,13.707,3.903,21.917,3.903c14.482,0,26.618-5.382,36.421-16.153v-38.008h-39.6
		v13.248h25.828v18.802c-6.535,5.471-14.083,8.212-22.65,8.212c-11.3,0-19.818-3.227-25.558-9.667
		c-5.735-6.448-8.608-14.347-8.608-23.707c-0.09-10.153,2.963-18.675,9.142-25.558c6.18-6.888,14.519-10.328,25.025-10.328
		c4.418,0,8.897,0.86,13.447,2.58c4.545,1.72,8.408,4.172,11.583,7.352L2442.949,3260.015z M2199.288,3295.242
		c0-10.413,2.891-18.888,8.678-25.427c5.779-6.53,13.88-9.8,24.298-9.8c7.149,0.09,13.265,1.923,18.345,5.5
		c5.073,3.577,8.692,7.923,10.857,13.043c2.163,5.122,3.24,10.683,3.24,16.683c0,9.717-2.73,17.815-8.207,24.302
		c-5.47,6.492-13.638,9.732-24.5,9.732c-5.475,0-10.352-0.992-14.632-2.975c-4.285-1.985-7.705-4.635-10.261-7.947
		c-2.56-3.308-4.483-6.927-5.763-10.856C2200.062,3303.565,2199.377,3299.479,2199.288,3295.242z M2232.264,3246.509
		c-13.951,0-25.38,4.568-34.3,13.707c-8.915,9.142-13.375,20.768-13.375,34.898c0,6.265,0.993,12.203,2.982,17.812
		c1.985,5.603,4.857,10.658,8.608,15.16c3.75,4.507,8.717,8.102,14.895,10.795c6.18,2.693,13.158,4.04,20.925,4.04
		c7.772,0,14.745-1.305,20.925-3.907c6.178-2.608,11.145-6.162,14.9-10.658c3.751-4.508,6.618-9.605,8.603-15.298
		c1.989-5.698,2.982-11.722,2.982-18.075c0-13.423-4.106-24.832-12.312-34.233
		C2258.881,3251.347,2247.272,3246.599,2232.264,3246.509z M2046.212,3248.234v92.697h63.693v-13.767h-48.863v-78.93H2046.212z
		 M1956.836,3261.212c-6.538-10.418-18.057-15.625-34.565-15.625c-4.417,0-8.655,0.502-12.717,1.522
		c-4.058,1.012-7.857,2.537-11.387,4.568c-3.533,2.027-6.358,4.81-8.475,8.338c-2.117,3.535-3.18,7.598-3.18,12.19
		c0,3.793,0.685,7.167,2.055,10.128c1.365,2.958,3.09,5.364,5.163,7.215c2.075,1.857,4.792,3.443,8.145,4.772
		c3.355,1.323,6.553,2.338,9.6,3.042c3.048,0.71,6.685,1.328,10.923,1.856c7.417,0.969,13.218,2.58,17.418,4.833
		c4.192,2.248,6.288,5.717,6.288,10.393c0,3.62-1.214,6.643-3.642,9.072c-2.428,2.428-5.32,4.086-8.675,4.97
		c-3.353,0.878-7.062,1.318-11.12,1.318c-13.248,0-22.867-5.07-28.872-15.227l-11.122,7.417
		c7.588,14.037,20.878,21.057,39.855,21.057c6.888,0,13.087-0.907,18.61-2.717c5.518-1.808,10.195-4.921,14.037-9.335
		c3.84-4.413,5.758-9.93,5.758-16.555c0-4.942-0.991-9.202-2.98-12.778c-1.98-3.577-4.872-6.397-8.67-8.477
		c-3.798-2.073-7.64-3.642-11.523-4.7s-8.565-1.99-14.035-2.778c-7.328-1.063-12.913-2.518-16.753-4.37
		c-3.842-1.857-5.76-4.813-5.76-8.877c0-4.323,1.985-7.743,5.958-10.262c3.973-2.518,9.137-3.775,15.497-3.775
		c4.852,0.09,9.33,1.04,13.44,2.848c4.105,1.81,7.257,4.305,9.468,7.48L1956.836,3261.212z M1769.324,3261.735
		c5.735,0,10.105,1.702,13.11,5.103c3,3.397,4.502,7.393,4.502,11.985c0,4.677-1.502,8.608-4.502,11.788
		c-3.005,3.178-7.418,4.767-13.243,4.767h-28.208v-33.643H1769.324z M1804.554,3338.285l-27.685-30.855
		c8.565-1.239,14.9-4.53,19.005-9.87c4.107-5.338,6.162-11.678,6.162-19.002c0-8.295-2.892-15.425-8.68-21.386
		c-5.777-5.957-13.79-8.938-24.032-8.938c-4.768,0-11.963-0.023-21.592-0.067c-9.618-0.047-16.813-0.067-21.58-0.067v92.83h14.83
		v-32.045h19.602l28.203,32.045h17.353L1804.554,3338.285z M1620.751,3248.365v54.162c0,8.655-2.387,15.34-7.153,20.068
		c-4.762,4.72-10.942,6.86-18.538,6.42c-7.063-0.268-12.757-2.692-17.078-7.285c-4.328-4.592-6.492-10.993-6.492-19.203v-54.162
		h-14.703v54.162c0,12.538,3.643,22.293,10.928,29.267c7.285,6.978,16.398,10.597,27.345,10.862
		c11.745,0.44,21.407-2.848,29.003-9.87c7.592-7.02,11.39-17.102,11.39-30.258v-54.162H1620.751z M1391.659,3295.242
		c0-10.413,2.892-18.888,8.678-25.427c5.783-6.53,13.88-9.8,24.298-9.8c7.152,0.09,13.265,1.923,18.345,5.5
		c5.073,3.577,8.692,7.923,10.857,13.043c2.163,5.122,3.245,10.683,3.245,16.683c0,9.717-2.735,17.815-8.212,24.302
		c-5.47,6.492-13.638,9.732-24.495,9.732c-5.48,0-10.357-0.992-14.637-2.975c-4.28-1.985-7.7-4.635-10.262-7.947
		c-2.56-3.308-4.483-6.927-5.758-10.856C1392.434,3303.565,1391.749,3299.479,1391.659,3295.242z M1424.636,3246.509
		c-13.947,0-25.38,4.568-34.295,13.707c-8.92,9.142-13.38,20.768-13.38,34.898c0,6.265,0.993,12.203,2.982,17.812
		c1.988,5.603,4.857,10.658,8.608,15.16c3.75,4.507,8.717,8.102,14.895,10.795c6.18,2.693,13.158,4.04,20.93,4.04
		c7.767,0,14.74-1.305,20.92-3.907c6.183-2.608,11.145-6.162,14.9-10.658c3.752-4.508,6.618-9.605,8.603-15.298
		c1.988-5.698,2.982-11.722,2.982-18.075c0-13.423-4.102-24.832-12.312-34.233
		C1451.253,3251.347,1439.644,3246.599,1424.636,3246.509z M1237.795,3248.234h-17.617v0.662l35.758,54.033v38.002h14.835v-38.002
		l36.813-54.033v-0.662h-17.878l-26.352,40.918L1237.795,3248.234z M911.593,3146.247h80.387v47.368H850.228V2941.7h61.365V3146.247
		z"/>
</g>
</svg>
